<svg width="23" height="24" viewBox="0 0 23 24" fill="none" xmlns="http://www.w3.org/2000/svg">
<circle cx="11.5" cy="11.5292" r="11" stroke="white"/>
<path d="M12 11.5292V11.5485V11.5677V11.587V11.6063V11.6256V11.6449V11.6642V11.6835V11.7029V11.7222V11.7416V11.7609V11.7803V11.7997V11.8191V11.8385V11.8579V11.8773V11.8967V11.9162V11.9356V11.9551V11.9746V11.9941V12.0136V12.0331V12.0526V12.0721V12.0916V12.1112V12.1307V12.1503V12.1699V12.1895V12.2091V12.2287V12.2483V12.2679V12.2876V12.3072V12.3269V12.3465V12.3662V12.3859V12.4056V12.4253V12.445V12.4648V12.4845V12.5043V12.524V12.5438V12.5636V12.5834V12.6032V12.623V12.6429V12.6627V12.6825V12.7024V12.7223V12.7422V12.7621V12.782V12.8019V12.8218V12.8417V12.8617V12.8817V12.9016V12.9216V12.9416V12.9616V12.9816V13.0016V13.0217V13.0417V13.0618V13.0819V13.1019V13.122V13.1421V13.1622V13.1824V13.2025V13.2227V13.2428V13.263V13.2832V13.3034V13.3236V13.3438V13.364V13.3842V13.4045V13.4247V13.445V13.4653V13.4856V13.5059V13.5262V13.5465V13.5669V13.5872V13.6076V13.628V13.6484V13.6688V13.6892V13.7096V13.73V13.7505V13.7709V13.7914V13.8119V13.8324V13.8529V13.8734V13.8939V13.9144V13.935V13.9556V13.9761V13.9967V14.0173V14.0379V14.0585V14.0792V14.0998V14.1205V14.1411V14.1618V14.1825V14.2032V14.2239V14.2447V14.2654V14.2861V14.3069V14.3277V14.3485V14.3693V14.3901V14.4109V14.4317V14.4526V14.4734V14.4943V14.5152V14.5361V14.557V14.5779V14.5989V14.6198V14.6408V14.6617V14.6827V14.7037V14.7247V14.7457V14.7668V14.7878V14.8089V14.8299V14.851V14.8721V14.8932V14.9144V14.9355V14.9566V14.9778V14.999V15.0201V15.0413V15.0625V15.0838V15.105V15.1262V15.1475V15.1688V15.19V15.2113V15.2326V15.254V15.2753V15.2966V15.318V15.3394V15.3608V15.3822V15.4036V15.425V15.4464V15.4679V15.4893V15.5108V15.5323V15.5538V15.5753V15.5969V15.6184V15.6399V15.6615V15.6831V15.7047V15.7263V15.7479V15.7695V15.7912V15.8128V15.8345V15.8562V15.8779V15.8996V15.9213V15.9431V15.9648V15.9866V16.0084V16.0302V16.052V16.0738V16.0956V16.1175V16.1393V16.1612V16.1831V16.205V16.2269V16.2488V16.2707V16.2927V16.3147V16.3366V16.3586V16.3806V16.4026V16.4247V16.4467V16.4688V16.4909V16.5129V16.5351V16.5572V16.5793V16.6014V16.6236V16.6458V16.6679V16.6901V16.7124V16.7346V16.7568V16.7791V16.8013V16.8236V16.8459V16.8682V16.8905V16.9129V16.9352V16.9576V16.98V17.0024V17.0248V17.0472V17.0696V17.0921V17.1145V17.137V17.1595V17.182V17.2045V17.2271V17.2496V17.2722V17.2947V17.3173V17.3399V17.3626V17.3852V17.4078V17.4305V17.4532V17.4759V17.4986V17.5213V17.544V17.5668V17.5895V17.6123V17.6351V17.6579V17.6807V17.7036V17.7264V17.7493V17.7722V17.795V17.818V17.8409V17.8638V17.8868V17.9097V17.9327V17.9557V17.9787V18.0017V18.0248V18.0478V18.0709V18.094V18.1171V18.1402V18.1633V18.1865V18.2096V18.2328V18.256V18.2792V18.3024V18.3256V18.3489V18.3721V18.3954V18.4187V18.442V18.4653V18.4887V18.512V18.5354V18.5588V18.5822V18.6056V18.629V18.6525V18.6759V18.6994V18.7229V18.7464V18.7699V18.7934V18.817V18.8406V18.8641V18.8877V18.9113V18.935V18.9586V18.9823V19.0059V19.0296V19.0533V19.0771V19.1008V19.1245V19.1483V19.1721V19.1959V19.2197V19.2435V19.2674V19.2912V19.3151V19.339V19.3629V19.3868V19.4107V19.4347V19.4587V19.4826V19.5066V19.5307V19.5547V19.5787V19.6028V19.6269V19.651V19.6751V19.6992V19.7234V19.7475V19.7717V19.7959V19.8201V19.8443V19.8685V19.8928V19.9171V19.9413V19.9656V19.99V20.0143V20.0386V20.063V20.0874V20.1118V20.1362V20.1606V20.1851V20.2095V20.234V20.2585V20.283V20.3076V20.3321V20.3567V20.3812V20.4058V20.4304V20.4551V20.4797V20.5044V20.529V20.5537V20.5784V20.6032V20.6279V20.6527V20.6774V20.7022V20.727V20.7518V20.7767V20.8015V20.8264V20.8513V20.8762V20.9011V20.9261V20.951V20.976V21.001V21.026V21.051V21.0761V21.1011V21.1262V21.1513V21.1764V21.2015V21.2266V21.2518V21.277V21.3022V21.3274V21.3526V21.3778V21.4031V21.4284V21.4537V21.479V21.5043V21.5296V21.555V21.5804V21.6058V21.6312V21.6566V21.6821V21.7075V21.733V21.7585V21.784V21.8095V21.8351V21.8607V21.8862V21.9118V21.9375V21.9631V21.9887V22.0144V22.0401V22.0658V22.0915V22.1173V22.143V22.1688V22.1946V22.2204V22.2462V22.2721V22.2979V22.3238V22.3497V22.3756V22.4016V22.4275V22.4535V22.4795V22.5055V22.5315V22.5534C5.07157 22.774 0.5 17.4814 0.5 11.5292C0.5 5.91087 5.0805 0.299925 12 0.505594V0.52242V0.545951V0.569487V0.593026V0.616568V0.640115V0.663665V0.687218V0.710775V0.734335V0.757899V0.781466V0.805037V0.82861V0.852187V0.875767V0.89935V0.922936V0.946525V0.970117V0.993711V1.01731V1.04091V1.06451V1.08812V1.11173V1.13534V1.15895V1.18257V1.20619V1.22981V1.25343V1.27705V1.30068V1.32431V1.34794V1.37158V1.39521V1.41885V1.44249V1.46613V1.48977V1.51342V1.53707V1.56071V1.58436V1.60802V1.63167V1.65532V1.67898V1.70264V1.7263V1.74995V1.77362V1.79728V1.82094V1.8446V1.86827V1.89194V1.9156V1.93927V1.96294V1.98661V2.01028V2.03395V2.05762V2.08129V2.10496V2.12864V2.15231V2.17598V2.19966V2.22333V2.247V2.27068V2.29435V2.31802V2.3417V2.36537V2.38905V2.41272V2.43639V2.46007V2.48374V2.50741V2.53108V2.55475V2.57842V2.60209V2.62576V2.64943V2.6731V2.69677V2.72043V2.7441V2.76776V2.79143V2.81509V2.83875V2.86241V2.88607V2.90973V2.93338V2.95704V2.98069V3.00434V3.02799V3.05164V3.07529V3.09893V3.12258V3.14622V3.16986V3.1935V3.21713V3.24077V3.2644V3.28803V3.31166V3.33529V3.35891V3.38253V3.40615V3.42977V3.45338V3.47699V3.5006V3.52421V3.54781V3.57141V3.59501V3.61861V3.6422V3.66579V3.68937V3.71296V3.73654V3.76012V3.78369V3.80726V3.83083V3.8544V3.87796V3.90151V3.92507V3.94862V3.97217V3.99571V4.01925V4.04279V4.06632V4.08985V4.11337V4.13689V4.16041V4.18392V4.20743V4.23094V4.25444V4.27793V4.30142V4.32491V4.34839V4.37187V4.39535V4.41882V4.44228V4.46574V4.4892V4.51265V4.53609V4.55954V4.58297V4.6064V4.62983V4.65325V4.67667V4.70008V4.72348V4.74688V4.77028V4.79367V4.81705V4.84043V4.86381V4.88717V4.91054V4.93389V4.95724V4.98059V5.00393V5.02726V5.05059V5.07391V5.09723V5.12054V5.14384V5.16714V5.19043V5.21371V5.23699V5.26026V5.28353V5.30679V5.33004V5.35328V5.37652V5.39975V5.42298V5.4462V5.46941V5.49262V5.51581V5.53901V5.56219V5.58537V5.60854V5.6317V5.65485V5.678V5.70114V5.72428V5.7474V5.77052V5.79363V5.81673V5.83983V5.86292V5.886V5.90907V5.93213V5.95519V5.97824V6.00128V6.02431V6.04733V6.07035V6.09336V6.11636V6.13935V6.16233V6.1853V6.20827V6.23123V6.25418V6.27712V6.30005V6.32297V6.34588V6.36879V6.39168V6.41457V6.43745V6.46032V6.48318V6.50603V6.52887V6.5517V6.57452V6.59734V6.62014V6.64294V6.66572V6.6885V6.71126V6.73402V6.75677V6.7795V6.80223V6.82495V6.84765V6.87035V6.89304V6.91572V6.93838V6.96104V6.98369V7.00632V7.02895V7.05156V7.07417V7.09676V7.11935V7.14192V7.16448V7.18704V7.20958V7.23211V7.25463V7.27714V7.29964V7.32212V7.3446V7.36706V7.38952V7.41196V7.43439V7.45681V7.47922V7.50162V7.524V7.54638V7.56874V7.59109V7.61343V7.63576V7.65807V7.68038V7.70267V7.72495V7.74722V7.76948V7.79172V7.81395V7.83617V7.85838V7.88058V7.90276V7.92493V7.94709V7.96923V7.99137V8.01349V8.03559V8.05769V8.07977V8.10184V8.1239V8.14594V8.16798V8.18999V8.212V8.23399V8.25597V8.27794V8.29989V8.32183V8.34375V8.36567V8.38756V8.40945V8.43132V8.45318V8.47503V8.49686V8.51867V8.54048V8.56227V8.58404V8.6058V8.62755V8.64928V8.671V8.69271V8.7144V8.73608V8.75774V8.77939V8.80102V8.82264V8.84424V8.86584V8.88741V8.90897V8.93052V8.95205V8.97357V8.99507V9.01655V9.03802V9.05948V9.08092V9.10235V9.12376V9.14516V9.16654V9.1879V9.20925V9.23059V9.25191V9.27321V9.2945V9.31577V9.33702V9.35826V9.37949V9.4007V9.42189V9.44307V9.46423V9.48538V9.5065V9.52762V9.54871V9.56979V9.59086V9.61191V9.63294V9.65395V9.67495V9.69593V9.7169V9.73784V9.75877V9.77969V9.80059V9.82147V9.84233V9.86318V9.88401V9.90482V9.92562V9.9464V9.96716V9.9879V10.0086V10.0293V10.05V10.0707V10.0914V10.112V10.1326V10.1532V10.1738V10.1944V10.2149V10.2355V10.256V10.2765V10.297V10.3174V10.3379V10.3583V10.3787V10.3991V10.4194V10.4398V10.4601V10.4804V10.5007V10.521V10.5413V10.5615V10.5817V10.6019V10.6221V10.6423V10.6624V10.6825V10.7027V10.7227V10.7428V10.7629V10.7829V10.8029V10.8229V10.8429V10.8628V10.8827V10.9027V10.9226V10.9424V10.9623V10.9821V11.0019V11.0217V11.0415V11.0613V11.081V11.1007V11.1204V11.1401V11.1597V11.1794V11.199V11.2186V11.2381V11.2577V11.2772V11.2967V11.3162V11.3357V11.3551V11.3746V11.394V11.4134V11.4327V11.4521V11.4714V11.4907V11.51V11.5292Z" fill="white" fill-opacity="0.5" stroke="white"/>
</svg>
