<svg width="97" height="97" viewBox="0 0 97 97" fill="none" xmlns="http://www.w3.org/2000/svg">
<path fill-rule="evenodd" clip-rule="evenodd" d="M96.2694 43.5325L96.3763 45.0287C96.4583 46.1753 96.5 47.3329 96.5 48.4999C96.5 49.667 96.4583 50.8246 96.3763 51.9712L96.2694 53.4674L93.277 53.2535L93.384 51.7573C93.4609 50.6818 93.5 49.5956 93.5 48.4999C93.5 47.4043 93.4609 46.3181 93.384 45.2426L93.277 43.7464L96.2694 43.5325ZM94.5416 62.197L94.0694 63.6207C93.3355 65.8336 92.445 67.9749 91.4111 70.0315L90.7374 71.3717L88.057 70.0242L88.7307 68.6841C89.6998 66.7565 90.5343 64.7498 91.2219 62.6763L91.6941 61.2526L94.5416 62.197ZM85.7875 78.7658L84.8058 79.8999C83.2905 81.6505 81.6506 83.2904 79.9 84.8057L78.7659 85.7875L76.8025 83.5192L77.9366 82.5375C79.5784 81.1163 81.1164 79.5783 82.5376 77.9365L83.5193 76.8024L85.7875 78.7658ZM71.3718 90.7373L70.0316 91.411C67.975 92.4449 65.8336 93.3355 63.6208 94.0694L62.197 94.5416L61.2526 91.6941L62.6764 91.2219C64.7498 90.5342 66.7565 89.6997 68.6841 88.7307L70.0243 88.0569L71.3718 90.7373Z" fill="#FFD56A"/>
<path fill-rule="evenodd" clip-rule="evenodd" d="M62.197 2.45837L63.6208 2.93056C65.8337 3.66447 67.975 4.55499 70.0316 5.5889L71.3718 6.26264L70.0243 8.94299L68.6841 8.26925C66.7565 7.3002 64.7499 6.46572 62.6764 5.77804L61.2527 5.30586L62.197 2.45837ZM78.7659 11.2125L79.9 12.1942C81.6506 13.7095 83.2905 15.3494 84.8058 17.1L85.7875 18.2341L83.5193 20.1975L82.5376 19.0634C81.1164 17.4216 79.5784 15.8836 77.9366 14.4624L76.8025 13.4807L78.7659 11.2125ZM90.7374 25.6282L91.4111 26.9684C92.445 29.025 93.3355 31.1663 94.0694 33.3792L94.5416 34.803L91.6941 35.7474L91.222 34.3236C90.5343 32.2501 89.6998 30.2435 88.7308 28.3159L88.057 26.9757L90.7374 25.6282Z" fill="#6A9DFF"/>
<path d="M62.197 2.45837L63.6208 2.93056C65.8337 3.66447 67.975 4.55499 70.0316 5.5889L71.3718 6.26264L70.0243 8.94299L68.6841 8.26925C66.7565 7.3002 64.7499 6.46572 62.6764 5.77804L61.2527 5.30586L62.197 2.45837Z" fill="#6A9DFF"/>
<path d="M78.7659 11.2125L79.9 12.1942C81.6506 13.7095 83.2905 15.3494 84.8058 17.1L85.7875 18.2341L83.5193 20.1975L82.5376 19.0634C81.1164 17.4216 79.5784 15.8836 77.9366 14.4624L76.8025 13.4807L78.7659 11.2125Z" fill="#6A9DFF"/>
<path d="M90.7374 25.6282L91.4111 26.9684C92.445 29.025 93.3355 31.1663 94.0694 33.3792L94.5416 34.803L91.6941 35.7474L91.222 34.3236C90.5343 32.2501 89.6998 30.2435 88.7308 28.3159L88.057 26.9757L90.7374 25.6282Z" fill="#6A9DFF"/>
<path fill-rule="evenodd" clip-rule="evenodd" d="M45.0287 0.623661C46.1754 0.541678 47.3329 0.5 48.5 0.5C49.6671 0.5 50.8246 0.541678 51.9713 0.623661L53.4675 0.730634L53.2535 3.723L51.7574 3.61602C50.6818 3.53913 49.5956 3.5 48.5 3.5C47.4044 3.5 46.3182 3.53913 45.2427 3.61602L43.7465 3.72299L43.5325 0.730633L45.0287 0.623661ZM35.7474 5.30586L34.3236 5.77805C32.2502 6.46572 30.2435 7.30021 28.3159 8.26926L26.9757 8.943L25.6282 6.26264L26.9684 5.5889C29.025 4.55499 31.1664 3.66448 33.3792 2.93057L34.803 2.45838L35.7474 5.30586ZM20.1975 13.4807L19.0634 14.4624C17.4216 15.8836 15.8836 17.4216 14.4625 19.0634L13.4807 20.1975L11.2125 18.2341L12.1942 17.1C13.7095 15.3494 15.3494 13.7095 17.1 12.1942L18.2341 11.2125L20.1975 13.4807ZM8.943 26.9757L8.26926 28.3159C7.30021 30.2435 6.46573 32.2501 5.77805 34.3236L5.30587 35.7474L2.45838 34.803L2.93057 33.3792C3.66448 31.1664 4.55499 29.025 5.58891 26.9684L6.26265 25.6282L8.943 26.9757ZM3.723 43.7465L3.61602 45.2426C3.53913 46.3182 3.5 47.4044 3.5 48.5C3.5 49.5956 3.53913 50.6818 3.61602 51.7573L3.72299 53.2535L0.730633 53.4675L0.623661 51.9713C0.541678 50.8246 0.5 49.6671 0.5 48.5C0.5 47.3329 0.541678 46.1754 0.623661 45.0287L0.730634 43.5325L3.723 43.7465ZM5.30586 61.2526L5.77805 62.6764C6.46572 64.7498 7.30021 66.7565 8.26926 68.6841L8.943 70.0243L6.26264 71.3718L5.5889 70.0316C4.55499 67.975 3.66448 65.8336 2.93057 63.6208L2.45838 62.197L5.30586 61.2526ZM13.4807 76.8025L14.4624 77.9366C15.8836 79.5784 17.4216 81.1164 19.0634 82.5376L20.1975 83.5193L18.2341 85.7875L17.1 84.8058C15.3494 83.2905 13.7095 81.6506 12.1942 79.9L11.2125 78.7659L13.4807 76.8025ZM26.9757 88.057L28.3159 88.7307C30.2435 89.6998 32.2501 90.5343 34.3236 91.2219L35.7474 91.6941L34.803 94.5416L33.3792 94.0694C31.1664 93.3355 29.025 92.445 26.9684 91.4111L25.6282 90.7374L26.9757 88.057ZM43.7465 93.277L45.2426 93.384C46.3182 93.4609 47.4044 93.5 48.5 93.5C49.5956 93.5 50.6818 93.4609 51.7573 93.384L53.2535 93.277L53.4675 96.2694L51.9713 96.3763C50.8246 96.4583 49.6671 96.5 48.5 96.5C47.3329 96.5 46.1754 96.4583 45.0287 96.3763L43.5325 96.2694L43.7465 93.277Z" fill="#FF6A6A"/>
</svg>
